<svg width="150" height="150" viewBox="0 0 150 150" fill="none" xmlns="http://www.w3.org/2000/svg">
<g clip-path="url(#clip0)">
<rect width="150" height="150" fill="white"/>
<path d="M-25 -23H175V174H-25V-23ZM97.6509 59.3425L95.0154 44.1721L41.0712 53.5016L48.9771 97.8755L54.331 96.9833V100.796H109.098V59.3425H97.6509ZM54.3313 92.5208L52.6018 92.8447L46.178 57.0703L91.3923 49.2008L93.2045 59.3418H54.3313V92.5208ZM104.651 96.4147H58.778V63.7229H104.651V96.4147ZM61.7426 66.643V90.8979L71.0493 84.8144L76.814 88.3831L90.8143 73.2134L92.6268 73.9432L101.686 84.2463V66.643H61.7426ZM70.6371 77.1072C68.4965 77.1072 66.6843 75.3229 66.6843 73.2134C66.6843 71.1042 68.4965 69.3189 70.6371 69.3189C72.7787 69.3189 74.5899 71.1033 74.5899 73.2134C74.5906 75.3229 72.7787 77.1072 70.6371 77.1072Z" fill="#F3F4F4"/>
</g>
<defs>
<clipPath id="clip0">
<rect width="150" height="150" fill="white"/>
</clipPath>
</defs>
</svg>
